<?xml version="1.0" standalone="no"?>
<!DOCTYPE svg PUBLIC "-//W3C//DTD SVG 20010904//EN"
 "http://www.w3.org/TR/2001/REC-SVG-20010904/DTD/svg10.dtd">
<svg version="1.0" xmlns="http://www.w3.org/2000/svg"
 width="180.000000pt" height="180.000000pt" viewBox="0 0 180.000000 180.000000"
 preserveAspectRatio="xMidYMid meet">
<metadata>
Created by potrace 1.14, written by Peter Selinger 2001-2017
</metadata>
<g transform="translate(0.000000,180.000000) scale(0.100000,-0.100000)"
fill="#000000" stroke="none">
<path d="M990 1483 c-224 -24 -443 -143 -496 -269 -23 -55 -18 -118 12 -153
36 -43 60 -42 34 2 -11 17 -20 42 -20 55 0 71 117 200 234 257 106 52 211 76
341 78 227 2 323 -68 301 -217 -10 -64 -43 -106 -111 -141 -52 -27 -67 -30
-144 -29 -47 1 -102 5 -122 8 -26 6 -38 4 -48 -8 -19 -23 -6 -34 47 -41 86
-12 117 -24 154 -61 67 -65 70 -139 9 -230 -42 -62 -136 -137 -200 -159 -56
-19 -148 -19 -194 0 -46 19 -91 58 -117 101 l-22 34 68 78 c37 42 105 127 150
187 86 116 293 328 332 340 32 9 26 47 -9 59 -36 12 -72 1 -114 -36 -50 -43
-169 -193 -314 -396 -69 -95 -128 -169 -131 -165 -4 4 -17 40 -28 79 -25 82
-47 108 -86 98 -59 -14 -154 -180 -162 -280 -11 -138 62 -150 205 -33 l33 27
32 -41 c50 -66 111 -91 230 -95 89 -4 111 -1 179 22 128 43 210 104 253 188
26 51 32 126 13 175 -14 37 -64 89 -102 104 l-31 13 65 12 c84 16 151 48 188
90 56 63 65 167 22 238 -53 85 -244 131 -451 109z m-465 -629 c9 -19 25 -59
35 -88 l18 -54 -51 -50 c-51 -48 -85 -72 -106 -72 -5 0 -14 16 -20 35 -10 37
5 120 31 168 26 49 59 97 67 97 5 0 16 -16 26 -36z"/>
</g>
</svg>
